<?xml version="1.0" encoding="UTF-8" standalone="no"?>
<svg
   xmlns:sketch="http://www.bohemiancoding.com/sketch/ns"
   xmlns:dc="http://purl.org/dc/elements/1.1/"
   xmlns:cc="http://creativecommons.org/ns#"
   xmlns:rdf="http://www.w3.org/1999/02/22-rdf-syntax-ns#"
   xmlns:svg="http://www.w3.org/2000/svg"
   xmlns="http://www.w3.org/2000/svg"
   xmlns:sodipodi="http://sodipodi.sourceforge.net/DTD/sodipodi-0.dtd"
   xmlns:inkscape="http://www.inkscape.org/namespaces/inkscape"
   inkscape:version="1.0 (4035a4f, 2020-05-01)"
   sodipodi:docname="onion.svg"
   id="svg18"
   y="0px"
   x="0px"
   version="1.1"
   viewBox="0 0 100 100"
   fill="#000000"
   width="300px"
   height="300px">
  <metadata
     id="metadata24">
    <rdf:RDF>
      <cc:Work
         rdf:about="">
        <dc:format>image/svg+xml</dc:format>
        <dc:type
           rdf:resource="http://purl.org/dc/dcmitype/StillImage" />
        <dc:title>Tor-Hollow</dc:title>
      </cc:Work>
    </rdf:RDF>
  </metadata>
  <defs
     id="defs22" />
  <sodipodi:namedview
     inkscape:current-layer="svg18"
     inkscape:window-maximized="0"
     inkscape:window-y="25"
     inkscape:window-x="0"
     inkscape:cy="150"
     inkscape:cx="90.816327"
     inkscape:zoom="2.45"
     showgrid="false"
     id="namedview20"
     inkscape:window-height="997"
     inkscape:window-width="1680"
     inkscape:pageshadow="2"
     inkscape:pageopacity="1"
     guidetolerance="10"
     gridtolerance="10"
     objecttolerance="10"
     borderopacity="1"
     bordercolor="#666666"
     pagecolor="#ffffff"
     inkscape:document-rotation="0" />
  <title
     id="title10">Tor-Hollow</title>
  <rect
     style="fill:#ffffff;fill-rule:evenodd;stroke-width:0.332867"
     id="rect19"
     width="100"
     height="100"
     x="0"
     y="0"
     inkscape:label="rect19" />
  <description>Created with Sketch (http://www.bohemiancoding.com/sketch)</description>
  <g
     id="g16"
     sketch:type="MSPage"
     fill-rule="evenodd"
     fill="none"
     stroke-width="1"
     stroke="none"
     transform="matrix(0.89419389,0,0,0.88543865,4.8492808,5.3821502)">
    <g
       id="g14"
       fill="#000000"
       sketch:type="MSArtboardGroup">
      <path
         id="path12"
         sketch:type="MSShapeGroup"
         d="m 52.227931,97.857279 c 1.421908,-1.413732 2.813123,-3.786467 3.654079,-6.643241 1.13457,-3.951952 1.581837,-9.010101 1.505423,-12.216757 -0.07586,-1.864045 -0.90976,-5.901179 -2.42252,-9.555015 -0.831686,-2.013104 -2.109393,-4.026071 -2.941633,-5.442942 -0.906438,-1.417964 -0.912944,-4.474475 -1.366993,-8.053508 0.07586,3.877695 -0.308007,5.822959 0.674845,8.582445 0.604661,1.640186 2.647884,3.877423 3.253099,6.040132 0.831686,2.908545 1.73757,6.114665 1.661157,8.053513 0,2.237505 -0.141891,6.411406 -1.124742,10.88588 -0.749525,3.697014 -2.476912,6.869523 -5.381456,8.667759 -2.975282,-0.604117 -6.468679,-1.635386 -8.530734,-3.378378 -4.007818,-3.429976 -7.557572,-9.165438 -8.011622,-14.161889 -0.377636,-4.101005 3.473341,-10.149332 8.842201,-13.206389 4.537173,-2.609882 5.592562,-5.584357 6.575413,-10.356947 -1.361042,4.175812 -2.639302,7.676358 -7.02531,9.913322 -6.352265,3.280917 -9.611732,8.788567 -9.309401,14.008326 0.453496,6.710893 3.179178,11.258259 8.548037,14.91264 1.561968,1.078174 4.057699,2.198474 6.324805,2.937907 -8.287768,-1.888949 -9.085266,-2.762427 -11.467332,-5.538638 0,-0.149058 -0.605214,-0.521977 -0.605214,-0.671035 -3.024967,-3.430521 -6.88162,-9.247065 -8.242662,-14.615889 -0.454049,-1.864045 -0.908099,-3.877149 -0.378744,-5.741741 2.495058,-8.799345 7.940331,-12.228775 13.38505,-15.883156 1.361041,-0.894349 2.646777,-1.78979 3.932512,-2.684139 3.024967,-2.311766 3.781348,-8.500682 4.461868,-11.931204 -1.286289,4.250069 -2.571471,9.47038 -4.915363,11.184821 -1.209876,0.969151 -2.722083,1.715534 -4.007819,2.535627 -5.671743,3.802894 -11.268181,7.382473 -13.839099,16.479388 -0.604661,2.312313 -0.151165,4.026754 0.37819,6.264265 1.436347,5.592683 5.293554,11.557739 8.469686,15.137319 0,0 0.529356,0.522522 0.529356,0.596778 1.440238,1.638773 3.294995,2.79734 5.476349,3.727526 v 0 C 38.431405,97.184621 36.596664,96.52418 34.854115,95.690975 26.006793,91.440361 20.108024,82.3429 19.729834,74.88617 18.898148,59.748851 26.309123,55.349179 33.115437,49.831297 c 3.856653,-3.131859 9.150207,-4.622986 12.25048,-10.141414 0.605215,-1.192465 1.428651,-3.684628 0.748131,-6.443568 -0.302885,-0.969151 -1.048528,-3.966351 -1.577883,-4.712188 l 3.51392,1.386193 4.24104,1.82104 c 0.0013,-0.0021 0.0026,-0.0041 0.004,-0.0062 v 0 l 2.069882,1.019961 c -1.361041,4.995905 2.798496,10.21567 6.125794,12.079716 3.327297,1.864592 8.696162,5.36937 11.948154,8.277369 5.671744,4.996451 8.696711,12.080262 8.696711,19.537537 0,7.381927 -3.251992,14.615343 -9.074901,19.387387 -3.911258,3.213883 -10.16416,5.696888 -15.31027,6.757607 1.39059,-1.649193 2.895056,-4.559773 4.040421,-7.652501 2.797389,-7.382474 3.327298,-16.181273 2.192728,-25.427792 -0.07586,-0.894895 -1.58862,-8.873601 -3.024968,-12.22932 -2.042115,-4.995905 -5.672297,-9.47038 -6.049933,-10.438985 -0.679967,-1.640731 -2.174184,-5.047021 -2.058999,-9.702833 -0.224339,3.984777 -0.28434,5.452219 0.471486,8.360218 0.831686,3.206661 5.067083,7.829648 6.806314,13.124215 3.327298,10.141414 2.495612,23.414688 0.07531,33.779416 -0.426252,1.716908 -1.604384,3.796435 -3.180927,5.6965 0.555704,-1.001979 1.032132,-2.092677 1.365836,-3.235676 2.420306,-8.351624 3.403157,-12.22932 2.269141,-21.475839 -0.151166,-0.895441 -0.529356,-3.951952 -1.966256,-7.233415 -2.117422,-4.996451 -5.142389,-9.768496 -5.520025,-10.738193 -0.681075,-1.565384 -1.58862,-8.351078 -1.739785,-12.974065 0.07586,3.87715 0.37819,11.111111 1.4369,13.944308 0.302331,0.969151 3.100273,5.219765 5.065976,10.364728 1.361595,3.57958 1.663925,6.860497 1.89095,7.829648 0.907546,4.250615 -0.227025,11.409228 -1.739785,18.194922 -0.622506,3.009336 -2.476625,6.62571 -4.758967,8.807787 -0.0326,0.02329 -0.06524,0.04643 -0.09793,0.06941 z M 53.36381,30.09126 C 59.118587,21.401905 66.513771,12.782642 75.688677,4.7174578 68.353561,7.1782823 61.850132,10.906374 57.010074,17.617813 59.883876,11.727013 64.572214,5.8356669 69.714603,-0.05513295 62.681264,4.941318 56.556024,10.608258 52.699371,18.139244 L 55.422008,7.4763986 C 51.610704,14.172777 48.916857,21.081523 47.85314,27.870584 45.173142,26.701062 42.189231,25.670773 42.189231,25.670773 l -1.585607,1.093918 c 4.915918,8.723996 2.947202,12.999448 0.526896,14.64018 -4.915917,3.355719 -12.100421,7.531531 -15.65419,11.185367 -6.882174,6.934753 -8.84843,13.57139 -8.243215,22.295932 0.680521,11.185914 8.923736,20.506689 19.964339,24.160524 4.839504,1.566476 9.301372,1.789786 14.292595,1.789786 8.01619,0 16.258857,-2.087902 22.232931,-7.009551 6.352265,-5.219765 10.133612,-13.049413 10.133612,-21.177177 0,-8.202566 -3.478463,-15.957958 -9.604256,-21.475839 -3.251992,-2.907999 -7.33567,-5.294022 -11.570518,-7.605788 -1.890397,-1.044499 -7.71386,-5.518428 -5.747604,-11.931204 0,0 -2.001327,-0.899514 -3.570404,-1.545661 z m -3.15742,40.477133 c 0.07531,2.609882 1.138446,5.953868 1.591942,9.384389 0.378744,2.535622 0.214289,5.082305 0.13843,7.319815 -0.07473,2.589806 -0.949739,7.230237 -2.145661,9.486759 -1.127776,-0.509981 -1.568653,-1.091575 -2.301395,-2.030439 -0.906992,-1.267814 -1.523143,-2.535627 -2.128357,-4.026754 -0.453496,-1.118755 -0.983682,-2.399127 -1.211261,-3.890254 -0.30233,-2.236964 -0.217611,-5.736555 2.353306,-9.316129 1.966256,-2.833748 2.416845,-3.049282 3.097366,-6.330199 -0.908099,2.907999 -1.585021,3.204477 -3.702996,5.664761 -2.343893,2.684685 -2.733988,6.638952 -2.733988,9.845067 0,1.342615 0.542922,2.832241 1.072831,4.248566 0.604661,1.491674 1.123634,2.976795 1.95532,4.095004 1.250275,1.81317 2.850535,2.844237 3.633781,3.037129 0.0052,0.0013 0.01218,-0.0012 0.0173,0 0.01678,0.0039 0.03592,0.01391 0.05191,0.01706 v -0.08531 c 1.467256,-1.613088 2.350227,-3.215583 2.647469,-4.828693 0.37819,-1.938848 0.465124,-3.881927 0.692149,-6.193693 0.226471,-1.938849 0.06215,-4.550369 -0.467201,-7.234502 -0.755826,-3.35572 -2.031595,-6.777101 -2.56095,-9.162577 z" />
    </g>
  </g>
</svg>
